<svg xmlns="http://www.w3.org/2000/svg" xmlns:xlink="http://www.w3.org/1999/xlink" width="500" zoomAndPan="magnify" viewBox="0 0 375 374.999991" height="500" preserveAspectRatio="xMidYMid meet" version="1.0"><defs><g/></defs><g fill="#bc9c22" fill-opacity="1"><g transform="translate(74.097655, 230.999985)"><g><path d="M 57.75 -115.15625 L 77.34375 -115.15625 L 77.34375 -47.953125 C 77.34375 -30.453125 72.503906 -17.5 62.828125 -9.09375 C 55.359375 -2.332031 45.554688 1.046875 33.421875 1.046875 C 20.359375 1.046875 10.675781 -3.734375 4.375 -13.296875 L 7.703125 -15.21875 C 10.148438 -11.132812 13.359375 -7.988281 17.328125 -5.78125 C 21.296875 -3.5625 25.492188 -2.453125 29.921875 -2.453125 C 37.859375 -2.453125 44.453125 -4.898438 49.703125 -9.796875 C 55.066406 -14.703125 57.75 -23.976562 57.75 -37.625 Z M 57.75 -115.15625 "/></g></g></g><g fill="#bc9c22" fill-opacity="1"><g transform="translate(164.920616, 230.999985)"><g><path d="M 69.46875 -39.03125 L 102.03125 -115.15625 L 121.796875 -115.15625 L 121.796875 0 L 102.03125 0 L 102.03125 -106.21875 L 60.71875 -9.796875 L 17.84375 -107.28125 L 17.84375 0 L 14.34375 0 L 14.34375 -115.15625 L 35.875 -115.15625 Z M 69.46875 -39.03125 "/></g></g></g><g fill="#000000" fill-opacity="1"><g transform="translate(37.478912, 192.388492)"><g><path d="M 8.125 -24.09375 C 7.925781 -24.09375 7.753906 -24.160156 7.609375 -24.296875 C 7.472656 -24.441406 7.40625 -24.613281 7.40625 -24.8125 C 7.40625 -25.175781 7.570312 -25.40625 7.90625 -25.5 C 9.195312 -25.957031 10.609375 -26.378906 12.140625 -26.765625 C 13.671875 -27.160156 15.265625 -27.523438 16.921875 -27.859375 C 18.585938 -28.191406 20.269531 -28.488281 21.96875 -28.75 C 23.664062 -29.019531 25.332031 -29.242188 26.96875 -29.421875 C 28.613281 -29.609375 30.179688 -29.75 31.671875 -29.84375 C 33.160156 -29.945312 34.519531 -30 35.75 -30 C 39.207031 -30 41.910156 -29.695312 43.859375 -29.09375 C 45.816406 -28.5 46.890625 -27.628906 47.078125 -26.484375 L 47.09375 -26.359375 C 47.09375 -26.160156 47.019531 -25.988281 46.875 -25.84375 C 46.738281 -25.707031 46.570312 -25.640625 46.375 -25.640625 C 46.195312 -25.640625 46.035156 -25.695312 45.890625 -25.8125 C 45.753906 -25.9375 45.675781 -26.085938 45.65625 -26.265625 C 45.582031 -26.703125 45.113281 -27.09375 44.25 -27.4375 C 43.394531 -27.789062 42.238281 -28.066406 40.78125 -28.265625 C 39.320312 -28.460938 37.644531 -28.5625 35.75 -28.5625 C 34.53125 -28.5625 33.191406 -28.515625 31.734375 -28.421875 C 30.273438 -28.328125 28.738281 -28.1875 27.125 -28 C 25.507812 -27.8125 23.863281 -27.585938 22.1875 -27.328125 C 20.507812 -27.078125 18.851562 -26.785156 17.21875 -26.453125 C 15.582031 -26.117188 14.015625 -25.757812 12.515625 -25.375 C 11.015625 -24.988281 9.628906 -24.578125 8.359375 -24.140625 C 8.285156 -24.109375 8.207031 -24.09375 8.125 -24.09375 Z M 3.1875 3.9375 C 2.976562 3.9375 2.804688 3.863281 2.671875 3.71875 C 2.535156 3.582031 2.46875 3.414062 2.46875 3.21875 C 2.46875 3.15625 2.476562 3.082031 2.5 3 C 3.238281 0.488281 6.207031 -3.804688 11.40625 -9.890625 C 11.476562 -9.953125 11.503906 -9.992188 11.484375 -10.015625 C 11.472656 -10.035156 11.421875 -10.039062 11.328125 -10.03125 C 10.285156 -9.851562 9.265625 -9.65625 8.265625 -9.4375 C 7.273438 -9.226562 6.332031 -9.003906 5.4375 -8.765625 C 5.363281 -8.742188 5.300781 -8.734375 5.25 -8.734375 C 5.039062 -8.734375 4.867188 -8.800781 4.734375 -8.9375 C 4.597656 -9.070312 4.53125 -9.242188 4.53125 -9.453125 C 4.53125 -9.609375 4.578125 -9.753906 4.671875 -9.890625 C 4.773438 -10.023438 4.90625 -10.109375 5.0625 -10.140625 C 6.15625 -10.453125 7.351562 -10.738281 8.65625 -11 C 9.96875 -11.257812 11.347656 -11.488281 12.796875 -11.6875 C 12.941406 -11.71875 13.0625 -11.78125 13.15625 -11.875 C 14.894531 -13.851562 16.820312 -15.972656 18.9375 -18.234375 C 21.050781 -20.503906 23.332031 -22.882812 25.78125 -25.375 C 25.925781 -25.519531 26.097656 -25.59375 26.296875 -25.59375 C 26.492188 -25.59375 26.660156 -25.519531 26.796875 -25.375 C 26.941406 -25.238281 27.015625 -25.070312 27.015625 -24.875 C 27.015625 -24.707031 26.953125 -24.539062 26.828125 -24.375 C 24.597656 -22.101562 22.519531 -19.941406 20.59375 -17.890625 C 18.675781 -15.847656 16.898438 -13.921875 15.265625 -12.109375 C 15.210938 -12.054688 15.191406 -12.019531 15.203125 -12 C 15.222656 -11.976562 15.28125 -11.972656 15.375 -11.984375 C 17.363281 -12.191406 19.28125 -12.304688 21.125 -12.328125 C 22.96875 -12.359375 24.625 -12.300781 26.09375 -12.15625 C 26.28125 -12.132812 26.4375 -12.050781 26.5625 -11.90625 C 26.695312 -11.769531 26.765625 -11.609375 26.765625 -11.421875 C 26.765625 -11.222656 26.691406 -11.050781 26.546875 -10.90625 C 26.410156 -10.769531 26.242188 -10.703125 26.046875 -10.703125 L 25.984375 -10.703125 C 24.847656 -10.828125 23.617188 -10.890625 22.296875 -10.890625 C 20.972656 -10.898438 19.601562 -10.859375 18.1875 -10.765625 C 16.78125 -10.679688 15.367188 -10.554688 13.953125 -10.390625 C 13.773438 -10.347656 13.65625 -10.28125 13.59375 -10.1875 C 10.738281 -6.90625 8.492188 -4.125 6.859375 -1.84375 C 5.234375 0.425781 4.242188 2.179688 3.890625 3.421875 C 3.828125 3.566406 3.734375 3.6875 3.609375 3.78125 C 3.484375 3.882812 3.34375 3.9375 3.1875 3.9375 Z M 3.1875 3.9375 "/></g></g></g><g fill="#000000" fill-opacity="1"><g transform="translate(63.939219, 192.388492)"><g><path d="M 6.5625 -11.453125 C 6.363281 -11.453125 6.191406 -11.519531 6.046875 -11.65625 C 5.910156 -11.800781 5.84375 -11.972656 5.84375 -12.171875 C 5.84375 -12.328125 5.894531 -12.472656 6 -12.609375 L 7.171875 -14.15625 C 7.316406 -14.320312 7.5 -14.40625 7.71875 -14.40625 C 7.925781 -14.40625 8.097656 -14.332031 8.234375 -14.1875 C 8.378906 -14.050781 8.453125 -13.882812 8.453125 -13.6875 C 8.453125 -13.53125 8.394531 -13.378906 8.28125 -13.234375 C 8.1875 -13.140625 8.0625 -12.976562 7.90625 -12.75 C 7.75 -12.53125 7.597656 -12.332031 7.453125 -12.15625 C 7.390625 -12.0625 7.328125 -11.976562 7.265625 -11.90625 C 7.210938 -11.84375 7.171875 -11.785156 7.140625 -11.734375 C 6.992188 -11.546875 6.800781 -11.453125 6.5625 -11.453125 Z M 0.765625 0.71875 C -0.078125 0.71875 -0.734375 0.492188 -1.203125 0.046875 C -1.679688 -0.398438 -1.921875 -1.023438 -1.921875 -1.828125 C -1.921875 -2.648438 -1.429688 -3.789062 -0.453125 -5.25 C 0.515625 -6.71875 1.878906 -8.359375 3.640625 -10.171875 C 3.785156 -10.316406 3.957031 -10.390625 4.15625 -10.390625 C 4.34375 -10.390625 4.507812 -10.316406 4.65625 -10.171875 C 4.8125 -10.023438 4.890625 -9.859375 4.890625 -9.671875 C 4.890625 -9.492188 4.828125 -9.332031 4.703125 -9.1875 L 4.6875 -9.171875 C 3.664062 -8.128906 2.765625 -7.117188 1.984375 -6.140625 C 1.210938 -5.171875 0.609375 -4.3125 0.171875 -3.5625 C -0.265625 -2.8125 -0.484375 -2.234375 -0.484375 -1.828125 C -0.484375 -1.429688 -0.390625 -1.144531 -0.203125 -0.96875 C -0.015625 -0.800781 0.304688 -0.71875 0.765625 -0.71875 C 1.210938 -0.71875 1.820312 -0.828125 2.59375 -1.046875 C 3.375 -1.265625 4.253906 -1.5625 5.234375 -1.9375 C 6.222656 -2.3125 7.257812 -2.742188 8.34375 -3.234375 C 9.4375 -3.722656 10.535156 -4.238281 11.640625 -4.78125 C 12.742188 -5.332031 13.796875 -5.882812 14.796875 -6.4375 C 15.796875 -6.988281 16.695312 -7.519531 17.5 -8.03125 C 17.65625 -8.09375 17.78125 -8.125 17.875 -8.125 C 18.0625 -8.125 18.226562 -8.050781 18.375 -7.90625 C 18.519531 -7.757812 18.59375 -7.59375 18.59375 -7.40625 C 18.59375 -7.125 18.476562 -6.914062 18.25 -6.78125 C 17.445312 -6.28125 16.53125 -5.742188 15.5 -5.171875 C 14.46875 -4.609375 13.382812 -4.046875 12.25 -3.484375 C 11.113281 -2.921875 9.972656 -2.382812 8.828125 -1.875 C 7.691406 -1.375 6.601562 -0.925781 5.5625 -0.53125 C 4.519531 -0.144531 3.582031 0.15625 2.75 0.375 C 1.925781 0.601562 1.265625 0.71875 0.765625 0.71875 Z M 0.765625 0.71875 "/></g></g></g><g fill="#000000" fill-opacity="1"><g transform="translate(79.771364, 192.388492)"><g><path d="M 36.84375 -21.140625 C 37.039062 -21.117188 37.207031 -21.039062 37.34375 -20.90625 C 37.476562 -20.769531 37.546875 -20.609375 37.546875 -20.421875 C 37.546875 -20.210938 37.472656 -20.035156 37.328125 -19.890625 C 37.191406 -19.753906 37.023438 -19.6875 36.828125 -19.6875 L 36.78125 -19.6875 C 33.019531 -19.84375 29.15625 -19.921875 25.1875 -19.921875 C 21.226562 -19.921875 17.253906 -19.832031 13.265625 -19.65625 C 9.546875 -15.289062 5.878906 -10.84375 2.265625 -6.3125 C -1.335938 -1.78125 -4.800781 2.765625 -8.125 7.328125 C -11.445312 11.890625 -14.550781 16.421875 -17.4375 20.921875 C -17.3125 21.109375 -17.335938 21.359375 -17.515625 21.671875 C -18.128906 22.703125 -18.675781 23.21875 -19.15625 23.21875 C -19.476562 23.21875 -19.695312 23.117188 -19.8125 22.921875 C -19.9375 22.734375 -19.941406 22.472656 -19.828125 22.140625 L -19.828125 22.109375 C -19.753906 21.890625 -19.628906 21.648438 -19.453125 21.390625 C -16.585938 16.859375 -13.492188 12.289062 -10.171875 7.6875 C -6.847656 3.082031 -3.375 -1.503906 0.25 -6.078125 C 3.875 -10.660156 7.5625 -15.160156 11.3125 -19.578125 C 7.519531 -19.398438 3.804688 -19.15625 0.171875 -18.84375 C -3.460938 -18.539062 -6.9375 -18.175781 -10.25 -17.75 L -10.34375 -17.75 C -10.539062 -17.75 -10.707031 -17.816406 -10.84375 -17.953125 C -10.988281 -18.097656 -11.0625 -18.269531 -11.0625 -18.46875 C -11.0625 -18.65625 -11 -18.816406 -10.875 -18.953125 C -10.75 -19.097656 -10.597656 -19.175781 -10.421875 -19.1875 C -6.878906 -19.644531 -3.164062 -20.03125 0.71875 -20.34375 C 4.601562 -20.65625 8.550781 -20.898438 12.5625 -21.078125 C 15 -23.898438 17.488281 -26.742188 20.03125 -29.609375 C 22.582031 -32.484375 25.195312 -35.367188 27.875 -38.265625 C 28 -38.429688 28.175781 -38.515625 28.40625 -38.515625 C 28.601562 -38.515625 28.769531 -38.441406 28.90625 -38.296875 C 29.050781 -38.160156 29.125 -37.988281 29.125 -37.78125 C 29.125 -37.582031 29.054688 -37.425781 28.921875 -37.3125 C 26.554688 -34.738281 24.171875 -32.097656 21.765625 -29.390625 C 19.359375 -26.691406 16.945312 -23.945312 14.53125 -21.15625 C 18.238281 -21.289062 21.96875 -21.359375 25.71875 -21.359375 C 29.476562 -21.359375 33.1875 -21.285156 36.84375 -21.140625 Z M 36.84375 -21.140625 "/></g></g></g><g fill="#000000" fill-opacity="1"><g transform="translate(93.301747, 192.388492)"><g><path d="M -2.546875 0.15625 C -2.847656 0.15625 -3.082031 0.046875 -3.25 -0.171875 C -3.425781 -0.398438 -3.484375 -0.675781 -3.421875 -1 C -3.378906 -1.21875 -3.191406 -1.585938 -2.859375 -2.109375 C -2.523438 -2.640625 -2.082031 -3.28125 -1.53125 -4.03125 C -0.976562 -4.78125 -0.34375 -5.597656 0.375 -6.484375 C 1.101562 -7.367188 1.882812 -8.265625 2.71875 -9.171875 C 3.550781 -10.078125 4.410156 -10.945312 5.296875 -11.78125 C 6.179688 -12.625 7.066406 -13.378906 7.953125 -14.046875 C 8.097656 -14.140625 8.242188 -14.1875 8.390625 -14.1875 C 8.585938 -14.1875 8.753906 -14.113281 8.890625 -13.96875 C 9.035156 -13.832031 9.109375 -13.664062 9.109375 -13.46875 C 9.109375 -13.226562 9.015625 -13.035156 8.828125 -12.890625 C 7.921875 -12.210938 7.015625 -11.445312 6.109375 -10.59375 C 5.210938 -9.738281 4.351562 -8.863281 3.53125 -7.96875 C 2.707031 -7.070312 1.960938 -6.21875 1.296875 -5.40625 C 0.640625 -4.601562 0.101562 -3.910156 -0.3125 -3.328125 C -0.394531 -3.210938 -0.414062 -3.128906 -0.375 -3.078125 C -0.332031 -3.023438 -0.238281 -3.046875 -0.09375 -3.140625 C 2.257812 -4.835938 4.296875 -6.222656 6.015625 -7.296875 C 7.734375 -8.367188 9.1875 -9.160156 10.375 -9.671875 C 11.570312 -10.191406 12.546875 -10.453125 13.296875 -10.453125 C 13.816406 -10.453125 14.222656 -10.320312 14.515625 -10.0625 C 14.816406 -9.800781 14.96875 -9.4375 14.96875 -8.96875 C 14.96875 -8.550781 14.894531 -8.003906 14.75 -7.328125 C 14.601562 -6.648438 14.453125 -5.972656 14.296875 -5.296875 C 14.160156 -4.722656 14.035156 -4.195312 13.921875 -3.71875 C 13.816406 -3.25 13.765625 -2.914062 13.765625 -2.71875 C 13.765625 -2.53125 13.820312 -2.394531 13.9375 -2.3125 C 14.050781 -2.238281 14.253906 -2.203125 14.546875 -2.203125 C 15.304688 -2.203125 16.203125 -2.335938 17.234375 -2.609375 C 18.265625 -2.878906 19.390625 -3.269531 20.609375 -3.78125 C 21.828125 -4.289062 23.097656 -4.898438 24.421875 -5.609375 C 25.753906 -6.328125 27.085938 -7.125 28.421875 -8 C 28.546875 -8.082031 28.679688 -8.125 28.828125 -8.125 C 29.023438 -8.125 29.191406 -8.050781 29.328125 -7.90625 C 29.472656 -7.769531 29.546875 -7.601562 29.546875 -7.40625 C 29.546875 -7.125 29.429688 -6.925781 29.203125 -6.8125 C 27.796875 -5.882812 26.398438 -5.046875 25.015625 -4.296875 C 23.628906 -3.554688 22.296875 -2.921875 21.015625 -2.390625 C 19.734375 -1.859375 18.539062 -1.453125 17.4375 -1.171875 C 16.34375 -0.898438 15.378906 -0.765625 14.546875 -0.765625 C 13.859375 -0.765625 13.316406 -0.9375 12.921875 -1.28125 C 12.523438 -1.625 12.328125 -2.101562 12.328125 -2.71875 C 12.328125 -3 12.382812 -3.410156 12.5 -3.953125 C 12.625 -4.492188 12.753906 -5.054688 12.890625 -5.640625 C 13.046875 -6.304688 13.191406 -6.9375 13.328125 -7.53125 C 13.460938 -8.125 13.53125 -8.507812 13.53125 -8.6875 C 13.53125 -8.894531 13.421875 -9 13.203125 -9 C 12.753906 -9 12.195312 -8.867188 11.53125 -8.609375 C 10.863281 -8.347656 10.128906 -8 9.328125 -7.5625 C 8.523438 -7.132812 7.691406 -6.648438 6.828125 -6.109375 C 5.972656 -5.566406 5.117188 -5.007812 4.265625 -4.4375 C 3.421875 -3.863281 2.617188 -3.304688 1.859375 -2.765625 C 1.097656 -2.234375 0.425781 -1.753906 -0.15625 -1.328125 C -0.25 -1.253906 -0.335938 -1.1875 -0.421875 -1.125 C -0.515625 -1.070312 -0.601562 -1.007812 -0.6875 -0.9375 C -1.257812 -0.507812 -1.675781 -0.21875 -1.9375 -0.0625 C -2.195312 0.0820312 -2.398438 0.15625 -2.546875 0.15625 Z M -2.546875 0.15625 "/></g></g></g><g fill="#000000" fill-opacity="1"><g transform="translate(120.062277, 192.388492)"><g><path d="M 20.65625 -8.125 C 20.851562 -8.125 21.019531 -8.050781 21.15625 -7.90625 C 21.300781 -7.769531 21.375 -7.601562 21.375 -7.40625 C 21.375 -7.15625 21.273438 -6.960938 21.078125 -6.828125 C 19.796875 -5.890625 18.441406 -5.035156 17.015625 -4.265625 C 15.585938 -3.492188 14.164062 -2.8125 12.75 -2.21875 C 11.332031 -1.632812 9.988281 -1.144531 8.71875 -0.75 C 7.457031 -0.351562 6.332031 -0.0546875 5.34375 0.140625 C 4.351562 0.347656 3.578125 0.453125 3.015625 0.453125 C 1.609375 0.453125 0.515625 0.195312 -0.265625 -0.3125 C -1.046875 -0.832031 -1.4375 -1.566406 -1.4375 -2.515625 C -1.4375 -3.148438 -1.269531 -3.816406 -0.9375 -4.515625 C -0.613281 -5.222656 -0.179688 -5.914062 0.359375 -6.59375 C 0.910156 -7.269531 1.519531 -7.882812 2.1875 -8.4375 C 2.863281 -8.988281 3.550781 -9.425781 4.25 -9.75 C 4.945312 -10.082031 5.613281 -10.25 6.25 -10.25 C 6.800781 -10.25 7.25 -10.097656 7.59375 -9.796875 C 7.9375 -9.503906 8.109375 -9.117188 8.109375 -8.640625 C 8.109375 -8.304688 7.988281 -7.976562 7.75 -7.65625 C 7.519531 -7.332031 7.207031 -7.03125 6.8125 -6.75 C 6.414062 -6.476562 5.988281 -6.257812 5.53125 -6.09375 C 5.070312 -5.925781 4.609375 -5.84375 4.140625 -5.84375 C 3.222656 -5.84375 2.484375 -5.960938 1.921875 -6.203125 C 1.316406 -5.546875 0.84375 -4.890625 0.5 -4.234375 C 0.164062 -3.585938 0 -3.015625 0 -2.515625 C 0 -1.492188 1.003906 -0.984375 3.015625 -0.984375 C 3.535156 -0.984375 4.265625 -1.078125 5.203125 -1.265625 C 6.140625 -1.460938 7.207031 -1.75 8.40625 -2.125 C 9.601562 -2.507812 10.878906 -2.984375 12.234375 -3.546875 C 13.585938 -4.117188 14.945312 -4.773438 16.3125 -5.515625 C 17.6875 -6.253906 18.992188 -7.078125 20.234375 -7.984375 C 20.335938 -8.078125 20.476562 -8.125 20.65625 -8.125 Z M 6.671875 -8.640625 C 6.671875 -8.703125 6.644531 -8.742188 6.59375 -8.765625 C 6.550781 -8.796875 6.4375 -8.8125 6.25 -8.8125 C 5.832031 -8.8125 5.347656 -8.679688 4.796875 -8.421875 C 4.253906 -8.171875 3.695312 -7.8125 3.125 -7.34375 C 3.40625 -7.300781 3.742188 -7.28125 4.140625 -7.28125 C 4.648438 -7.28125 5.09375 -7.363281 5.46875 -7.53125 C 5.84375 -7.695312 6.132812 -7.882812 6.34375 -8.09375 C 6.5625 -8.3125 6.671875 -8.492188 6.671875 -8.640625 Z M 6.671875 -8.640625 "/></g></g></g><g fill="#000000" fill-opacity="1"><g transform="translate(138.676561, 192.388492)"><g><path d="M 25.875 -8.125 C 26.082031 -8.125 26.253906 -8.050781 26.390625 -7.90625 C 26.523438 -7.769531 26.59375 -7.601562 26.59375 -7.40625 C 26.59375 -7.039062 26.425781 -6.8125 26.09375 -6.71875 C 24.71875 -6.269531 23.242188 -5.8125 21.671875 -5.34375 C 20.109375 -4.875 18.539062 -4.40625 16.96875 -3.9375 C 15.445312 -3.488281 13.972656 -3.050781 12.546875 -2.625 C 11.128906 -2.207031 9.828125 -1.804688 8.640625 -1.421875 C 8.578125 -1.378906 8.539062 -1.347656 8.53125 -1.328125 C 8.0625 -0.671875 7.476562 0 6.78125 0.6875 C 6.09375 1.375 5.335938 2.007812 4.515625 2.59375 C 3.703125 3.175781 2.875 3.644531 2.03125 4 C 1.1875 4.363281 0.382812 4.546875 -0.375 4.546875 C -0.925781 4.546875 -1.359375 4.421875 -1.671875 4.171875 C -1.984375 3.921875 -2.140625 3.59375 -2.140625 3.1875 C -2.140625 2.675781 -1.734375 2.101562 -0.921875 1.46875 C -0.109375 0.832031 1.03125 0.171875 2.5 -0.515625 C 3.96875 -1.210938 5.675781 -1.898438 7.625 -2.578125 L 7.75 -2.65625 C 7.882812 -2.84375 8 -3.03125 8.09375 -3.21875 C 8.195312 -3.40625 8.226562 -3.535156 8.1875 -3.609375 C 8.132812 -3.703125 7.957031 -3.734375 7.65625 -3.703125 C 7.363281 -3.671875 7.003906 -3.617188 6.578125 -3.546875 C 6.148438 -3.472656 5.71875 -3.398438 5.28125 -3.328125 C 4.757812 -3.234375 4.226562 -3.148438 3.6875 -3.078125 C 3.144531 -3.003906 2.648438 -2.96875 2.203125 -2.96875 C 1.441406 -2.96875 0.851562 -3.113281 0.4375 -3.40625 C 0.0195312 -3.695312 -0.1875 -4.113281 -0.1875 -4.65625 C -0.1875 -5.207031 0 -5.789062 0.375 -6.40625 C 0.75 -7.03125 1.25 -7.644531 1.875 -8.25 C 2.507812 -8.863281 3.207031 -9.414062 3.96875 -9.90625 C 4.726562 -10.394531 5.5 -10.789062 6.28125 -11.09375 C 7.070312 -11.394531 7.804688 -11.546875 8.484375 -11.546875 C 9.046875 -11.546875 9.492188 -11.398438 9.828125 -11.109375 C 10.160156 -10.828125 10.328125 -10.445312 10.328125 -9.96875 C 10.328125 -9.820312 10.3125 -9.679688 10.28125 -9.546875 C 10.15625 -9.015625 9.894531 -8.484375 9.5 -7.953125 C 9.113281 -7.429688 8.695312 -7.035156 8.25 -6.765625 C 8.113281 -6.703125 7.984375 -6.671875 7.859375 -6.671875 C 7.660156 -6.671875 7.488281 -6.738281 7.34375 -6.875 C 7.207031 -7.007812 7.140625 -7.179688 7.140625 -7.390625 C 7.140625 -7.671875 7.257812 -7.875 7.5 -8 C 7.726562 -8.132812 7.945312 -8.316406 8.15625 -8.546875 C 8.375 -8.773438 8.550781 -9.007812 8.6875 -9.25 C 8.820312 -9.5 8.890625 -9.710938 8.890625 -9.890625 C 8.890625 -9.960938 8.847656 -10.015625 8.765625 -10.046875 C 8.679688 -10.085938 8.585938 -10.109375 8.484375 -10.109375 C 7.972656 -10.109375 7.394531 -9.984375 6.75 -9.734375 C 6.113281 -9.484375 5.476562 -9.15625 4.84375 -8.75 C 4.207031 -8.34375 3.617188 -7.898438 3.078125 -7.421875 C 2.535156 -6.953125 2.097656 -6.484375 1.765625 -6.015625 C 1.429688 -5.554688 1.265625 -5.148438 1.265625 -4.796875 C 1.265625 -4.648438 1.332031 -4.546875 1.46875 -4.484375 C 1.613281 -4.429688 1.859375 -4.40625 2.203125 -4.40625 C 2.597656 -4.40625 3.039062 -4.4375 3.53125 -4.5 C 4.019531 -4.570312 4.523438 -4.65625 5.046875 -4.75 C 5.523438 -4.820312 6 -4.890625 6.46875 -4.953125 C 6.945312 -5.023438 7.375 -5.0625 7.75 -5.0625 C 8.363281 -5.0625 8.832031 -4.9375 9.15625 -4.6875 C 9.476562 -4.445312 9.625 -4.097656 9.59375 -3.640625 C 9.570312 -3.585938 9.554688 -3.519531 9.546875 -3.4375 C 9.546875 -3.363281 9.53125 -3.289062 9.5 -3.21875 C 10.5625 -3.550781 11.691406 -3.894531 12.890625 -4.25 C 14.085938 -4.613281 15.316406 -4.972656 16.578125 -5.328125 C 18.148438 -5.796875 19.710938 -6.257812 21.265625 -6.71875 C 22.816406 -7.175781 24.273438 -7.632812 25.640625 -8.09375 C 25.722656 -8.113281 25.800781 -8.125 25.875 -8.125 Z M -0.09375 3.109375 C 0.394531 3.109375 0.976562 2.957031 1.65625 2.65625 C 2.34375 2.363281 3.0625 1.945312 3.8125 1.40625 C 4.5625 0.863281 5.289062 0.242188 6 -0.453125 C 5.144531 -0.109375 4.316406 0.253906 3.515625 0.640625 C 2.722656 1.023438 2.003906 1.390625 1.359375 1.734375 C 0.722656 2.085938 0.222656 2.390625 -0.140625 2.640625 C -0.316406 2.742188 -0.40625 2.851562 -0.40625 2.96875 C -0.40625 3.0625 -0.300781 3.109375 -0.09375 3.109375 Z M -0.09375 3.109375 "/></g></g></g><g fill="#000000" fill-opacity="1"><g transform="translate(162.53487, 192.388492)"><g><path d="M 25.875 -8.125 C 26.082031 -8.125 26.253906 -8.050781 26.390625 -7.90625 C 26.523438 -7.769531 26.59375 -7.601562 26.59375 -7.40625 C 26.59375 -7.039062 26.425781 -6.8125 26.09375 -6.71875 C 24.71875 -6.269531 23.242188 -5.8125 21.671875 -5.34375 C 20.109375 -4.875 18.539062 -4.40625 16.96875 -3.9375 C 15.445312 -3.488281 13.972656 -3.050781 12.546875 -2.625 C 11.128906 -2.207031 9.828125 -1.804688 8.640625 -1.421875 C 8.578125 -1.378906 8.539062 -1.347656 8.53125 -1.328125 C 8.0625 -0.671875 7.476562 0 6.78125 0.6875 C 6.09375 1.375 5.335938 2.007812 4.515625 2.59375 C 3.703125 3.175781 2.875 3.644531 2.03125 4 C 1.1875 4.363281 0.382812 4.546875 -0.375 4.546875 C -0.925781 4.546875 -1.359375 4.421875 -1.671875 4.171875 C -1.984375 3.921875 -2.140625 3.59375 -2.140625 3.1875 C -2.140625 2.675781 -1.734375 2.101562 -0.921875 1.46875 C -0.109375 0.832031 1.03125 0.171875 2.5 -0.515625 C 3.96875 -1.210938 5.675781 -1.898438 7.625 -2.578125 L 7.75 -2.65625 C 7.882812 -2.84375 8 -3.03125 8.09375 -3.21875 C 8.195312 -3.40625 8.226562 -3.535156 8.1875 -3.609375 C 8.132812 -3.703125 7.957031 -3.734375 7.65625 -3.703125 C 7.363281 -3.671875 7.003906 -3.617188 6.578125 -3.546875 C 6.148438 -3.472656 5.71875 -3.398438 5.28125 -3.328125 C 4.757812 -3.234375 4.226562 -3.148438 3.6875 -3.078125 C 3.144531 -3.003906 2.648438 -2.96875 2.203125 -2.96875 C 1.441406 -2.96875 0.851562 -3.113281 0.4375 -3.40625 C 0.0195312 -3.695312 -0.1875 -4.113281 -0.1875 -4.65625 C -0.1875 -5.207031 0 -5.789062 0.375 -6.40625 C 0.75 -7.03125 1.25 -7.644531 1.875 -8.25 C 2.507812 -8.863281 3.207031 -9.414062 3.96875 -9.90625 C 4.726562 -10.394531 5.5 -10.789062 6.28125 -11.09375 C 7.070312 -11.394531 7.804688 -11.546875 8.484375 -11.546875 C 9.046875 -11.546875 9.492188 -11.398438 9.828125 -11.109375 C 10.160156 -10.828125 10.328125 -10.445312 10.328125 -9.96875 C 10.328125 -9.820312 10.3125 -9.679688 10.28125 -9.546875 C 10.15625 -9.015625 9.894531 -8.484375 9.5 -7.953125 C 9.113281 -7.429688 8.695312 -7.035156 8.25 -6.765625 C 8.113281 -6.703125 7.984375 -6.671875 7.859375 -6.671875 C 7.660156 -6.671875 7.488281 -6.738281 7.34375 -6.875 C 7.207031 -7.007812 7.140625 -7.179688 7.140625 -7.390625 C 7.140625 -7.671875 7.257812 -7.875 7.5 -8 C 7.726562 -8.132812 7.945312 -8.316406 8.15625 -8.546875 C 8.375 -8.773438 8.550781 -9.007812 8.6875 -9.25 C 8.820312 -9.5 8.890625 -9.710938 8.890625 -9.890625 C 8.890625 -9.960938 8.847656 -10.015625 8.765625 -10.046875 C 8.679688 -10.085938 8.585938 -10.109375 8.484375 -10.109375 C 7.972656 -10.109375 7.394531 -9.984375 6.75 -9.734375 C 6.113281 -9.484375 5.476562 -9.15625 4.84375 -8.75 C 4.207031 -8.34375 3.617188 -7.898438 3.078125 -7.421875 C 2.535156 -6.953125 2.097656 -6.484375 1.765625 -6.015625 C 1.429688 -5.554688 1.265625 -5.148438 1.265625 -4.796875 C 1.265625 -4.648438 1.332031 -4.546875 1.46875 -4.484375 C 1.613281 -4.429688 1.859375 -4.40625 2.203125 -4.40625 C 2.597656 -4.40625 3.039062 -4.4375 3.53125 -4.5 C 4.019531 -4.570312 4.523438 -4.65625 5.046875 -4.75 C 5.523438 -4.820312 6 -4.890625 6.46875 -4.953125 C 6.945312 -5.023438 7.375 -5.0625 7.75 -5.0625 C 8.363281 -5.0625 8.832031 -4.9375 9.15625 -4.6875 C 9.476562 -4.445312 9.625 -4.097656 9.59375 -3.640625 C 9.570312 -3.585938 9.554688 -3.519531 9.546875 -3.4375 C 9.546875 -3.363281 9.53125 -3.289062 9.5 -3.21875 C 10.5625 -3.550781 11.691406 -3.894531 12.890625 -4.25 C 14.085938 -4.613281 15.316406 -4.972656 16.578125 -5.328125 C 18.148438 -5.796875 19.710938 -6.257812 21.265625 -6.71875 C 22.816406 -7.175781 24.273438 -7.632812 25.640625 -8.09375 C 25.722656 -8.113281 25.800781 -8.125 25.875 -8.125 Z M -0.09375 3.109375 C 0.394531 3.109375 0.976562 2.957031 1.65625 2.65625 C 2.34375 2.363281 3.0625 1.945312 3.8125 1.40625 C 4.5625 0.863281 5.289062 0.242188 6 -0.453125 C 5.144531 -0.109375 4.316406 0.253906 3.515625 0.640625 C 2.722656 1.023438 2.003906 1.390625 1.359375 1.734375 C 0.722656 2.085938 0.222656 2.390625 -0.140625 2.640625 C -0.316406 2.742188 -0.40625 2.851562 -0.40625 2.96875 C -0.40625 3.0625 -0.300781 3.109375 -0.09375 3.109375 Z M -0.09375 3.109375 "/></g></g></g><g fill="#000000" fill-opacity="1"><g transform="translate(186.393179, 192.388492)"><g/></g></g><g fill="#000000" fill-opacity="1"><g transform="translate(206.408539, 192.388492)"><g><path d="M 35.390625 -8.828125 C 35.585938 -8.828125 35.753906 -8.753906 35.890625 -8.609375 C 36.035156 -8.472656 36.109375 -8.304688 36.109375 -8.109375 C 36.109375 -7.742188 35.941406 -7.515625 35.609375 -7.421875 C 32.585938 -6.367188 29.789062 -5.410156 27.21875 -4.546875 C 24.65625 -3.691406 22.304688 -2.910156 20.171875 -2.203125 L 18.171875 -1.5625 C 18.171875 -1.5625 18.171875 -1.554688 18.171875 -1.546875 C 18.222656 -1.316406 18.25 -1.035156 18.25 -0.703125 C 18.25 -0.0234375 18.035156 0.648438 17.609375 1.328125 C 17.179688 2.015625 16.59375 2.65625 15.84375 3.25 C 15.09375 3.851562 14.234375 4.390625 13.265625 4.859375 C 12.296875 5.328125 11.265625 5.691406 10.171875 5.953125 C 9.085938 6.222656 7.992188 6.359375 6.890625 6.359375 C 5.535156 6.359375 4.472656 6.175781 3.703125 5.8125 C 2.929688 5.457031 2.546875 4.953125 2.546875 4.296875 C 2.546875 3.941406 2.65625 3.597656 2.875 3.265625 C 3.101562 2.941406 3.503906 2.601562 4.078125 2.25 C 4.648438 1.90625 5.453125 1.515625 6.484375 1.078125 C 7.523438 0.640625 8.847656 0.132812 10.453125 -0.4375 C 12.066406 -1.007812 14.019531 -1.6875 16.3125 -2.46875 C 15.894531 -3.195312 15.234375 -3.941406 14.328125 -4.703125 C 13.421875 -5.472656 12.253906 -6.253906 10.828125 -7.046875 C 9.828125 -7.609375 8.898438 -8.179688 8.046875 -8.765625 C 7.203125 -9.347656 6.476562 -9.976562 5.875 -10.65625 C 5.269531 -11.34375 4.835938 -12.097656 4.578125 -12.921875 C 4.316406 -13.753906 4.28125 -14.695312 4.46875 -15.75 C 4.65625 -16.800781 5.082031 -17.84375 5.75 -18.875 C 6.425781 -19.90625 7.285156 -20.890625 8.328125 -21.828125 C 9.378906 -22.773438 10.554688 -23.671875 11.859375 -24.515625 C 13.160156 -25.359375 14.535156 -26.125 15.984375 -26.8125 C 17.441406 -27.5 18.914062 -28.09375 20.40625 -28.59375 C 21.894531 -29.09375 23.351562 -29.472656 24.78125 -29.734375 C 26.207031 -30.003906 27.535156 -30.140625 28.765625 -30.140625 C 30.296875 -30.140625 31.570312 -29.910156 32.59375 -29.453125 C 33.625 -28.992188 34.363281 -28.335938 34.8125 -27.484375 C 35.269531 -26.640625 35.394531 -25.625 35.1875 -24.4375 C 34.9375 -22.914062 34.265625 -21.425781 33.171875 -19.96875 C 32.078125 -18.519531 30.617188 -17.179688 28.796875 -15.953125 C 28.691406 -15.859375 28.550781 -15.8125 28.375 -15.8125 C 28.175781 -15.8125 28.003906 -15.878906 27.859375 -16.015625 C 27.722656 -16.160156 27.65625 -16.332031 27.65625 -16.53125 C 27.65625 -16.78125 27.765625 -16.984375 27.984375 -17.140625 C 29.648438 -18.265625 30.972656 -19.472656 31.953125 -20.765625 C 32.929688 -22.054688 33.539062 -23.359375 33.78125 -24.671875 C 34.007812 -25.984375 33.691406 -26.984375 32.828125 -27.671875 C 31.972656 -28.359375 30.617188 -28.703125 28.765625 -28.703125 C 27.578125 -28.703125 26.304688 -28.570312 24.953125 -28.3125 C 23.597656 -28.0625 22.210938 -27.707031 20.796875 -27.25 C 19.390625 -26.789062 18.003906 -26.242188 16.640625 -25.609375 C 15.273438 -24.972656 13.976562 -24.269531 12.75 -23.5 C 11.53125 -22.738281 10.429688 -21.921875 9.453125 -21.046875 C 8.484375 -20.171875 7.6875 -19.269531 7.0625 -18.34375 C 6.4375 -17.414062 6.035156 -16.472656 5.859375 -15.515625 C 5.671875 -14.398438 5.785156 -13.4375 6.203125 -12.625 C 6.617188 -11.820312 7.285156 -11.082031 8.203125 -10.40625 C 9.128906 -9.726562 10.242188 -9.019531 11.546875 -8.28125 C 14.734375 -6.5 16.78125 -4.710938 17.6875 -2.921875 L 17.6875 -2.90625 C 17.6875 -2.90625 17.691406 -2.90625 17.703125 -2.90625 C 17.710938 -2.90625 17.71875 -2.90625 17.71875 -2.90625 L 19.71875 -3.578125 C 21.851562 -4.285156 24.203125 -5.066406 26.765625 -5.921875 C 29.335938 -6.785156 32.128906 -7.738281 35.140625 -8.78125 C 35.222656 -8.8125 35.304688 -8.828125 35.390625 -8.828125 Z M 6.890625 4.921875 C 7.796875 4.921875 8.71875 4.8125 9.65625 4.59375 C 10.59375 4.375 11.488281 4.070312 12.34375 3.6875 C 13.195312 3.300781 13.960938 2.863281 14.640625 2.375 C 15.316406 1.894531 15.847656 1.390625 16.234375 0.859375 C 16.617188 0.328125 16.8125 -0.191406 16.8125 -0.703125 C 16.8125 -0.765625 16.8125 -0.828125 16.8125 -0.890625 C 16.8125 -0.953125 16.804688 -1.015625 16.796875 -1.078125 C 14.367188 -0.265625 12.328125 0.4375 10.671875 1.03125 C 9.023438 1.625 7.710938 2.125 6.734375 2.53125 C 5.753906 2.945312 5.050781 3.296875 4.625 3.578125 C 4.195312 3.859375 3.984375 4.097656 3.984375 4.296875 C 3.984375 4.378906 4.125 4.46875 4.40625 4.5625 C 4.695312 4.65625 5.066406 4.738281 5.515625 4.8125 C 5.960938 4.882812 6.421875 4.921875 6.890625 4.921875 Z M 6.890625 4.921875 "/></g></g></g><g fill="#000000" fill-opacity="1"><g transform="translate(239.153666, 192.388492)"><g><path d="M 36.84375 -21.140625 C 37.039062 -21.117188 37.207031 -21.039062 37.34375 -20.90625 C 37.476562 -20.769531 37.546875 -20.609375 37.546875 -20.421875 C 37.546875 -20.210938 37.472656 -20.035156 37.328125 -19.890625 C 37.191406 -19.753906 37.023438 -19.6875 36.828125 -19.6875 L 36.78125 -19.6875 C 33.019531 -19.84375 29.15625 -19.921875 25.1875 -19.921875 C 21.226562 -19.921875 17.253906 -19.832031 13.265625 -19.65625 C 9.546875 -15.289062 5.878906 -10.84375 2.265625 -6.3125 C -1.335938 -1.78125 -4.800781 2.765625 -8.125 7.328125 C -11.445312 11.890625 -14.550781 16.421875 -17.4375 20.921875 C -17.3125 21.109375 -17.335938 21.359375 -17.515625 21.671875 C -18.128906 22.703125 -18.675781 23.21875 -19.15625 23.21875 C -19.476562 23.21875 -19.695312 23.117188 -19.8125 22.921875 C -19.9375 22.734375 -19.941406 22.472656 -19.828125 22.140625 L -19.828125 22.109375 C -19.753906 21.890625 -19.628906 21.648438 -19.453125 21.390625 C -16.585938 16.859375 -13.492188 12.289062 -10.171875 7.6875 C -6.847656 3.082031 -3.375 -1.503906 0.25 -6.078125 C 3.875 -10.660156 7.5625 -15.160156 11.3125 -19.578125 C 7.519531 -19.398438 3.804688 -19.15625 0.171875 -18.84375 C -3.460938 -18.539062 -6.9375 -18.175781 -10.25 -17.75 L -10.34375 -17.75 C -10.539062 -17.75 -10.707031 -17.816406 -10.84375 -17.953125 C -10.988281 -18.097656 -11.0625 -18.269531 -11.0625 -18.46875 C -11.0625 -18.65625 -11 -18.816406 -10.875 -18.953125 C -10.75 -19.097656 -10.597656 -19.175781 -10.421875 -19.1875 C -6.878906 -19.644531 -3.164062 -20.03125 0.71875 -20.34375 C 4.601562 -20.65625 8.550781 -20.898438 12.5625 -21.078125 C 15 -23.898438 17.488281 -26.742188 20.03125 -29.609375 C 22.582031 -32.484375 25.195312 -35.367188 27.875 -38.265625 C 28 -38.429688 28.175781 -38.515625 28.40625 -38.515625 C 28.601562 -38.515625 28.769531 -38.441406 28.90625 -38.296875 C 29.050781 -38.160156 29.125 -37.988281 29.125 -37.78125 C 29.125 -37.582031 29.054688 -37.425781 28.921875 -37.3125 C 26.554688 -34.738281 24.171875 -32.097656 21.765625 -29.390625 C 19.359375 -26.691406 16.945312 -23.945312 14.53125 -21.15625 C 18.238281 -21.289062 21.96875 -21.359375 25.71875 -21.359375 C 29.476562 -21.359375 33.1875 -21.285156 36.84375 -21.140625 Z M 36.84375 -21.140625 "/></g></g></g><g fill="#000000" fill-opacity="1"><g transform="translate(252.684038, 192.388492)"><g><path d="M 26.953125 -8.1875 C 27.140625 -8.1875 27.304688 -8.113281 27.453125 -7.96875 C 27.609375 -7.820312 27.6875 -7.65625 27.6875 -7.46875 C 27.6875 -7.207031 27.578125 -7.003906 27.359375 -6.859375 C 26.597656 -6.335938 25.734375 -5.800781 24.765625 -5.25 C 23.796875 -4.695312 22.773438 -4.15625 21.703125 -3.625 C 20.640625 -3.101562 19.570312 -2.613281 18.5 -2.15625 C 17.425781 -1.695312 16.390625 -1.289062 15.390625 -0.9375 C 14.398438 -0.582031 13.5 -0.300781 12.6875 -0.09375 C 11.875 0.101562 11.191406 0.203125 10.640625 0.203125 C 9.523438 0.203125 8.671875 -0.0390625 8.078125 -0.53125 C 7.484375 -1.03125 7.1875 -1.75 7.1875 -2.6875 C 7.1875 -3.164062 7.269531 -3.644531 7.4375 -4.125 C 7.613281 -4.601562 7.890625 -5.144531 8.265625 -5.75 C 8.367188 -5.9375 8.394531 -6.050781 8.34375 -6.09375 C 8.300781 -6.144531 8.207031 -6.109375 8.0625 -5.984375 C 7.582031 -5.597656 7.03125 -5.164062 6.40625 -4.6875 C 5.78125 -4.207031 5.125 -3.722656 4.4375 -3.234375 C 3.757812 -2.742188 3.097656 -2.289062 2.453125 -1.875 C 1.804688 -1.46875 1.210938 -1.140625 0.671875 -0.890625 C 0.140625 -0.640625 -0.28125 -0.515625 -0.59375 -0.515625 C -1.082031 -0.515625 -1.46875 -0.65625 -1.75 -0.9375 C -2.039062 -1.226562 -2.1875 -1.625 -2.1875 -2.125 C -2.1875 -2.945312 -1.726562 -3.984375 -0.8125 -5.234375 C 0.101562 -6.484375 1.414062 -7.867188 3.125 -9.390625 C 3.257812 -9.523438 3.421875 -9.59375 3.609375 -9.59375 C 3.796875 -9.59375 3.960938 -9.515625 4.109375 -9.359375 C 4.253906 -9.210938 4.328125 -9.046875 4.328125 -8.859375 C 4.328125 -8.609375 4.238281 -8.429688 4.0625 -8.328125 L 4.078125 -8.34375 C 2.585938 -6.988281 1.410156 -5.769531 0.546875 -4.6875 C -0.304688 -3.601562 -0.734375 -2.785156 -0.734375 -2.234375 C -0.734375 -2.128906 -0.707031 -2.054688 -0.65625 -2.015625 C -0.613281 -1.984375 -0.566406 -1.96875 -0.515625 -1.96875 C -0.0351562 -1.96875 0.859375 -2.410156 2.171875 -3.296875 C 3.484375 -4.179688 5.28125 -5.546875 7.5625 -7.390625 C 8.539062 -8.171875 9.335938 -8.8125 9.953125 -9.3125 C 10.578125 -9.8125 11.070312 -10.179688 11.4375 -10.421875 C 11.800781 -10.660156 12.085938 -10.78125 12.296875 -10.78125 C 12.929688 -10.78125 13.21875 -10.550781 13.15625 -10.09375 C 13.09375 -9.644531 12.671875 -8.984375 11.890625 -8.109375 C 11.554688 -7.734375 11.195312 -7.320312 10.8125 -6.875 C 10.4375 -6.425781 10.082031 -5.960938 9.75 -5.484375 C 9.414062 -5.003906 9.144531 -4.523438 8.9375 -4.046875 C 8.726562 -3.566406 8.625 -3.113281 8.625 -2.6875 C 8.625 -2.175781 8.78125 -1.804688 9.09375 -1.578125 C 9.40625 -1.347656 9.921875 -1.234375 10.640625 -1.234375 C 11.109375 -1.234375 11.71875 -1.328125 12.46875 -1.515625 C 13.21875 -1.703125 14.054688 -1.957031 14.984375 -2.28125 C 15.910156 -2.613281 16.882812 -3 17.90625 -3.4375 C 18.925781 -3.882812 19.945312 -4.359375 20.96875 -4.859375 C 22 -5.367188 22.988281 -5.894531 23.9375 -6.4375 C 24.894531 -6.976562 25.765625 -7.515625 26.546875 -8.046875 C 26.648438 -8.140625 26.785156 -8.1875 26.953125 -8.1875 Z M 26.953125 -8.1875 "/></g></g></g><g fill="#000000" fill-opacity="1"><g transform="translate(277.563126, 192.388492)"><g><path d="M 26.578125 -8.140625 C 26.773438 -8.140625 26.941406 -8.066406 27.078125 -7.921875 C 27.222656 -7.785156 27.296875 -7.617188 27.296875 -7.421875 C 27.296875 -7.171875 27.179688 -6.96875 26.953125 -6.8125 C 25.710938 -5.96875 24.414062 -5.179688 23.0625 -4.453125 C 21.707031 -3.722656 20.351562 -3.066406 19 -2.484375 C 17.644531 -1.910156 16.347656 -1.421875 15.109375 -1.015625 C 13.867188 -0.609375 12.738281 -0.289062 11.71875 -0.0625 C 10.695312 0.15625 9.835938 0.265625 9.140625 0.265625 C 8.023438 0.265625 7.171875 0.0195312 6.578125 -0.46875 C 5.984375 -0.96875 5.6875 -1.6875 5.6875 -2.625 C 5.6875 -3.3125 6.148438 -4.472656 7.078125 -6.109375 C 7.191406 -6.296875 7.210938 -6.410156 7.140625 -6.453125 C 7.066406 -6.503906 6.957031 -6.457031 6.8125 -6.3125 C 4.4375 -4.207031 2.523438 -2.613281 1.078125 -1.53125 C -0.359375 -0.445312 -1.3125 0.09375 -1.78125 0.09375 C -2.257812 0.09375 -2.640625 -0.03125 -2.921875 -0.28125 C -3.203125 -0.53125 -3.34375 -0.878906 -3.34375 -1.328125 C -3.34375 -1.910156 -3.175781 -2.535156 -2.84375 -3.203125 C -2.519531 -3.867188 -2.078125 -4.535156 -1.515625 -5.203125 C -0.960938 -5.867188 -0.328125 -6.5 0.390625 -7.09375 C 1.109375 -7.695312 1.863281 -8.234375 2.65625 -8.703125 C 3.445312 -9.179688 4.234375 -9.554688 5.015625 -9.828125 C 5.796875 -10.109375 6.53125 -10.25 7.21875 -10.25 C 7.726562 -10.25 8.222656 -10.15625 8.703125 -9.96875 C 9.078125 -10.3125 9.460938 -10.671875 9.859375 -11.046875 C 10.265625 -11.421875 10.675781 -11.800781 11.09375 -12.1875 L 11.046875 -12.171875 C 12.222656 -13.804688 13.519531 -15.550781 14.9375 -17.40625 C 16.363281 -19.269531 17.859375 -21.164062 19.421875 -23.09375 C 20.992188 -25.03125 22.585938 -26.953125 24.203125 -28.859375 C 25.828125 -30.765625 27.425781 -32.59375 29 -34.34375 C 30.570312 -36.101562 32.078125 -37.726562 33.515625 -39.21875 C 34.960938 -40.71875 36.28125 -42.023438 37.46875 -43.140625 C 38.664062 -44.265625 39.695312 -45.140625 40.5625 -45.765625 C 41.425781 -46.390625 42.070312 -46.703125 42.5 -46.703125 C 43.5 -46.703125 44 -46.238281 44 -45.3125 C 44 -45.007812 43.722656 -44.457031 43.171875 -43.65625 C 42.628906 -42.851562 41.863281 -41.859375 40.875 -40.671875 C 39.882812 -39.484375 38.71875 -38.144531 37.375 -36.65625 C 36.03125 -35.164062 34.554688 -33.578125 32.953125 -31.890625 C 31.359375 -30.203125 29.679688 -28.457031 27.921875 -26.65625 C 26.160156 -24.851562 24.363281 -23.039062 22.53125 -21.21875 C 20.695312 -19.40625 18.875 -17.625 17.0625 -15.875 C 15.25 -14.125 13.5 -12.460938 11.8125 -10.890625 C 11.519531 -10.472656 11.238281 -10.066406 10.96875 -9.671875 C 10.695312 -9.285156 10.4375 -8.910156 10.1875 -8.546875 C 10.289062 -8.328125 10.359375 -8.101562 10.390625 -7.875 C 10.429688 -7.644531 10.4375 -7.414062 10.40625 -7.1875 C 10.394531 -7 10.316406 -6.835938 10.171875 -6.703125 C 10.035156 -6.566406 9.875 -6.5 9.6875 -6.5 C 9.414062 -6.5 9.21875 -6.609375 9.09375 -6.828125 C 7.78125 -4.710938 7.125 -3.3125 7.125 -2.625 C 7.125 -2.113281 7.273438 -1.742188 7.578125 -1.515625 C 7.890625 -1.296875 8.410156 -1.1875 9.140625 -1.1875 C 9.785156 -1.1875 10.59375 -1.289062 11.5625 -1.5 C 12.53125 -1.71875 13.609375 -2.019531 14.796875 -2.40625 C 15.984375 -2.800781 17.222656 -3.28125 18.515625 -3.84375 C 19.804688 -4.40625 21.101562 -5.039062 22.40625 -5.75 C 23.71875 -6.457031 24.976562 -7.21875 26.1875 -8.03125 C 26.289062 -8.101562 26.421875 -8.140625 26.578125 -8.140625 Z M 42.5 -45.25 C 42.21875 -45.25 41.726562 -44.984375 41.03125 -44.453125 C 40.332031 -43.929688 39.472656 -43.179688 38.453125 -42.203125 C 37.429688 -41.234375 36.285156 -40.085938 35.015625 -38.765625 C 33.742188 -37.441406 32.382812 -35.976562 30.9375 -34.375 C 29.5 -32.78125 28.007812 -31.085938 26.46875 -29.296875 C 24.925781 -27.515625 23.375 -25.675781 21.8125 -23.78125 C 20.25 -21.882812 18.722656 -19.984375 17.234375 -18.078125 C 18.085938 -18.898438 19.046875 -19.84375 20.109375 -20.90625 C 21.179688 -21.96875 22.316406 -23.101562 23.515625 -24.3125 C 24.710938 -25.53125 25.9375 -26.78125 27.1875 -28.0625 C 28.445312 -29.351562 29.703125 -30.640625 30.953125 -31.921875 C 32.203125 -33.210938 33.394531 -34.46875 34.53125 -35.6875 C 35.675781 -36.90625 36.738281 -38.046875 37.71875 -39.109375 C 38.695312 -40.179688 39.550781 -41.140625 40.28125 -41.984375 C 41.007812 -42.828125 41.578125 -43.519531 41.984375 -44.0625 C 42.390625 -44.613281 42.59375 -44.976562 42.59375 -45.15625 C 42.59375 -45.21875 42.5625 -45.25 42.5 -45.25 Z M -1.703125 -1.34375 C -1.410156 -1.34375 -0.472656 -1.988281 1.109375 -3.28125 C 2.703125 -4.570312 4.804688 -6.414062 7.421875 -8.8125 L 7.21875 -8.8125 C 6.675781 -8.8125 6.070312 -8.691406 5.40625 -8.453125 C 4.738281 -8.210938 4.0625 -7.882812 3.375 -7.46875 C 2.695312 -7.0625 2.046875 -6.601562 1.421875 -6.09375 C 0.796875 -5.59375 0.234375 -5.066406 -0.265625 -4.515625 C -0.765625 -3.972656 -1.160156 -3.441406 -1.453125 -2.921875 C -1.753906 -2.398438 -1.90625 -1.929688 -1.90625 -1.515625 C -1.90625 -1.398438 -1.835938 -1.34375 -1.703125 -1.34375 Z M -1.703125 -1.34375 "/></g></g></g><g fill="#000000" fill-opacity="1"><g transform="translate(302.081953, 192.388492)"><g><path d="M 6.5625 -11.453125 C 6.363281 -11.453125 6.191406 -11.519531 6.046875 -11.65625 C 5.910156 -11.800781 5.84375 -11.972656 5.84375 -12.171875 C 5.84375 -12.328125 5.894531 -12.472656 6 -12.609375 L 7.171875 -14.15625 C 7.316406 -14.320312 7.5 -14.40625 7.71875 -14.40625 C 7.925781 -14.40625 8.097656 -14.332031 8.234375 -14.1875 C 8.378906 -14.050781 8.453125 -13.882812 8.453125 -13.6875 C 8.453125 -13.53125 8.394531 -13.378906 8.28125 -13.234375 C 8.1875 -13.140625 8.0625 -12.976562 7.90625 -12.75 C 7.75 -12.53125 7.597656 -12.332031 7.453125 -12.15625 C 7.390625 -12.0625 7.328125 -11.976562 7.265625 -11.90625 C 7.210938 -11.84375 7.171875 -11.785156 7.140625 -11.734375 C 6.992188 -11.546875 6.800781 -11.453125 6.5625 -11.453125 Z M 0.765625 0.71875 C -0.078125 0.71875 -0.734375 0.492188 -1.203125 0.046875 C -1.679688 -0.398438 -1.921875 -1.023438 -1.921875 -1.828125 C -1.921875 -2.648438 -1.429688 -3.789062 -0.453125 -5.25 C 0.515625 -6.71875 1.878906 -8.359375 3.640625 -10.171875 C 3.785156 -10.316406 3.957031 -10.390625 4.15625 -10.390625 C 4.34375 -10.390625 4.507812 -10.316406 4.65625 -10.171875 C 4.8125 -10.023438 4.890625 -9.859375 4.890625 -9.671875 C 4.890625 -9.492188 4.828125 -9.332031 4.703125 -9.1875 L 4.6875 -9.171875 C 3.664062 -8.128906 2.765625 -7.117188 1.984375 -6.140625 C 1.210938 -5.171875 0.609375 -4.3125 0.171875 -3.5625 C -0.265625 -2.8125 -0.484375 -2.234375 -0.484375 -1.828125 C -0.484375 -1.429688 -0.390625 -1.144531 -0.203125 -0.96875 C -0.015625 -0.800781 0.304688 -0.71875 0.765625 -0.71875 C 1.210938 -0.71875 1.820312 -0.828125 2.59375 -1.046875 C 3.375 -1.265625 4.253906 -1.5625 5.234375 -1.9375 C 6.222656 -2.3125 7.257812 -2.742188 8.34375 -3.234375 C 9.4375 -3.722656 10.535156 -4.238281 11.640625 -4.78125 C 12.742188 -5.332031 13.796875 -5.882812 14.796875 -6.4375 C 15.796875 -6.988281 16.695312 -7.519531 17.5 -8.03125 C 17.65625 -8.09375 17.78125 -8.125 17.875 -8.125 C 18.0625 -8.125 18.226562 -8.050781 18.375 -7.90625 C 18.519531 -7.757812 18.59375 -7.59375 18.59375 -7.40625 C 18.59375 -7.125 18.476562 -6.914062 18.25 -6.78125 C 17.445312 -6.28125 16.53125 -5.742188 15.5 -5.171875 C 14.46875 -4.609375 13.382812 -4.046875 12.25 -3.484375 C 11.113281 -2.921875 9.972656 -2.382812 8.828125 -1.875 C 7.691406 -1.375 6.601562 -0.925781 5.5625 -0.53125 C 4.519531 -0.144531 3.582031 0.15625 2.75 0.375 C 1.925781 0.601562 1.265625 0.71875 0.765625 0.71875 Z M 0.765625 0.71875 "/></g></g></g><g fill="#000000" fill-opacity="1"><g transform="translate(317.914098, 192.388492)"><g><path d="M 21.640625 -8.125 C 21.828125 -8.125 21.992188 -8.050781 22.140625 -7.90625 C 22.285156 -7.757812 22.359375 -7.59375 22.359375 -7.40625 C 22.359375 -7.125 22.234375 -6.910156 21.984375 -6.765625 C 20.796875 -6.085938 19.484375 -5.597656 18.046875 -5.296875 C 16.617188 -5.003906 15.144531 -4.898438 13.625 -4.984375 C 12.101562 -5.078125 10.59375 -5.347656 9.09375 -5.796875 C 7.601562 -6.253906 6.1875 -6.890625 4.84375 -7.703125 C 4.9375 -6.953125 4.90625 -6.171875 4.75 -5.359375 C 4.601562 -4.554688 4.351562 -3.78125 4 -3.03125 C 3.644531 -2.28125 3.222656 -1.601562 2.734375 -1 C 2.242188 -0.394531 1.71875 0.078125 1.15625 0.421875 C 0.59375 0.773438 0.0195312 0.953125 -0.5625 0.953125 C -1.132812 0.953125 -1.597656 0.742188 -1.953125 0.328125 C -2.304688 -0.0859375 -2.484375 -0.644531 -2.484375 -1.34375 C -2.484375 -2.1875 -2.242188 -3.066406 -1.765625 -3.984375 C -1.296875 -4.898438 -0.640625 -5.789062 0.203125 -6.65625 C 1.046875 -7.53125 2.015625 -8.296875 3.109375 -8.953125 C 3.140625 -8.984375 3.171875 -9.019531 3.203125 -9.0625 C 3.265625 -9.300781 3.410156 -9.476562 3.640625 -9.59375 C 3.867188 -9.71875 4.101562 -9.75 4.34375 -9.6875 C 4.40625 -9.675781 4.457031 -9.675781 4.5 -9.6875 C 4.695312 -9.789062 4.90625 -9.882812 5.125 -9.96875 C 5.351562 -10.050781 5.578125 -10.128906 5.796875 -10.203125 C 5.910156 -10.234375 5.992188 -10.25 6.046875 -10.25 C 6.234375 -10.25 6.398438 -10.175781 6.546875 -10.03125 C 6.691406 -9.882812 6.765625 -9.71875 6.765625 -9.53125 C 6.765625 -9.164062 6.597656 -8.929688 6.265625 -8.828125 C 6.222656 -8.816406 6.179688 -8.804688 6.140625 -8.796875 C 6.097656 -8.785156 6.0625 -8.769531 6.03125 -8.75 C 6.007812 -8.75 5.992188 -8.742188 5.984375 -8.734375 C 7.203125 -8.035156 8.476562 -7.492188 9.8125 -7.109375 C 11.15625 -6.722656 12.503906 -6.492188 13.859375 -6.421875 C 15.222656 -6.359375 16.535156 -6.457031 17.796875 -6.71875 C 19.054688 -6.976562 20.21875 -7.40625 21.28125 -8 C 21.382812 -8.082031 21.503906 -8.125 21.640625 -8.125 Z M -0.5625 -0.484375 C -0.175781 -0.484375 0.21875 -0.628906 0.625 -0.921875 C 1.03125 -1.210938 1.414062 -1.601562 1.78125 -2.09375 C 2.144531 -2.59375 2.457031 -3.148438 2.71875 -3.765625 C 2.988281 -4.378906 3.1875 -5.003906 3.3125 -5.640625 C 3.445312 -6.285156 3.484375 -6.894531 3.421875 -7.46875 C 2.546875 -6.894531 1.769531 -6.253906 1.09375 -5.546875 C 0.425781 -4.835938 -0.09375 -4.117188 -0.46875 -3.390625 C -0.851562 -2.660156 -1.046875 -1.976562 -1.046875 -1.34375 C -1.046875 -0.769531 -0.882812 -0.484375 -0.5625 -0.484375 Z M -0.5625 -0.484375 "/></g></g></g></svg>